<svg width="45" height="48" viewBox="0 0 45 48" fill="none" xmlns="http://www.w3.org/2000/svg">
<path d="M23.8125 8.12503V12.54L27.4809 14.7408C27.6657 14.8518 27.7988 15.0316 27.851 15.2408C27.9032 15.4499 27.8702 15.6712 27.7592 15.856C27.6482 16.0407 27.4684 16.1739 27.2593 16.2261C27.0501 16.2783 26.8288 16.2452 26.6441 16.1342L22.5816 13.6967C22.4613 13.6245 22.3618 13.5224 22.2928 13.4003C22.2237 13.2782 22.1875 13.1403 22.1875 13V8.12503C22.1875 7.90954 22.2731 7.70288 22.4255 7.55051C22.5778 7.39813 22.7845 7.31253 23 7.31253C23.2155 7.31253 23.4222 7.39813 23.5745 7.55051C23.7269 7.70288 23.8125 7.90954 23.8125 8.12503ZM23 3.25003C21.7183 3.24684 20.4486 3.49788 19.2646 3.98862C18.0805 4.47936 17.0056 5.20006 16.1019 6.10901C15.3635 6.85651 14.7074 7.57558 14.0625 8.32816V6.50003C14.0625 6.28454 13.9769 6.07788 13.8245 5.92551C13.6722 5.77313 13.4655 5.68753 13.25 5.68753C13.0345 5.68753 12.8278 5.77313 12.6755 5.92551C12.5231 6.07788 12.4375 6.28454 12.4375 6.50003V10.5625C12.4375 10.778 12.5231 10.9847 12.6755 11.1371C12.8278 11.2894 13.0345 11.375 13.25 11.375H17.3125C17.528 11.375 17.7347 11.2894 17.887 11.1371C18.0394 10.9847 18.125 10.778 18.125 10.5625C18.125 10.347 18.0394 10.1404 17.887 9.98801C17.7347 9.83563 17.528 9.75003 17.3125 9.75003H14.9766C15.7027 8.89487 16.4259 8.08948 17.2505 7.25464C18.3798 6.12542 19.8167 5.35401 21.3819 5.0368C22.947 4.71959 24.5709 4.87064 26.0507 5.47109C27.5305 6.07153 28.8005 7.09474 29.7021 8.41287C30.6037 9.73099 31.0968 11.2856 31.1199 12.8824C31.143 14.4792 30.6951 16.0474 29.832 17.391C28.9689 18.7347 27.729 19.7942 26.2672 20.4372C24.8054 21.0802 23.1866 21.2782 21.6129 21.0063C20.0392 20.7345 18.5806 20.005 17.4191 18.9089C17.3415 18.8356 17.2502 18.7782 17.1504 18.7402C17.0506 18.7021 16.9443 18.6841 16.8376 18.6871C16.7308 18.6901 16.6257 18.7141 16.5282 18.7578C16.4307 18.8014 16.3428 18.8638 16.2695 18.9414C16.1961 19.0191 16.1387 19.1104 16.1007 19.2102C16.0626 19.3099 16.0446 19.4163 16.0476 19.523C16.0506 19.6298 16.0746 19.7349 16.1183 19.8324C16.1619 19.9298 16.2243 20.0178 16.302 20.0911C17.4592 21.1832 18.8662 21.9754 20.4 22.3987C21.9339 22.822 23.548 22.8634 25.1015 22.5194C26.6551 22.1754 28.1008 21.4564 29.3126 20.4252C30.5244 19.394 31.4654 18.0818 32.0534 16.6033C32.6414 15.1247 32.8587 13.5248 32.6862 11.943C32.5137 10.3611 31.9566 8.84561 31.0637 7.52859C30.1708 6.21157 28.9691 5.1331 27.5635 4.38731C26.1579 3.64152 24.5912 3.25107 23 3.25003Z" fill="#B7B7B7"/>
<path d="M9.00829 33.5359V43.9696H8.0884V33.5359H9.00829ZM0.812155 37.9696C0.812155 35.7569 1.91436 34.3481 3.47238 34.3398C5.01381 34.3481 6.1326 35.7569 6.1326 37.9696C6.1326 40.1906 5.01381 41.5994 3.47238 41.5994C1.91436 41.5994 0.812155 40.1906 0.812155 37.9696ZM1.6989 37.9696C1.6989 39.6685 2.42818 40.779 3.47238 40.779C4.51657 40.779 5.23757 39.6685 5.23757 37.9696C5.23757 36.279 4.51657 35.1685 3.47238 35.1602C2.42818 35.1685 1.6989 36.279 1.6989 37.9696ZM19.4291 33.5442V41.1851H18.5092V37.1823H16.3628V36.4282H18.5092V33.5442H19.4291ZM10.8352 39.0967C12.3766 38.558 13.4871 37.1823 13.4871 35.6906V35.1519H11.1335V34.3895H16.744V35.1519H14.4153V35.6906C14.4153 37.0331 15.4595 38.3425 16.9844 38.8646L16.5037 39.6022C15.3269 39.1796 14.4194 38.3052 13.9678 37.2279C13.5161 38.4296 12.5548 39.3867 11.3158 39.8508L10.8352 39.0967ZM12.7413 43.721V40.4972H13.6611V42.9586H19.7192V43.721H12.7413ZM32.7871 33.5359V43.953H31.8672V33.5359H32.7871ZM24.3092 41.2431C27.1268 39.9088 28.5647 37.9033 28.7677 35.4171H24.7898V34.6713H29.7042C29.6959 37.663 28.3036 40.3149 24.8064 41.9972L24.3092 41.2431ZM44.0698 39.2707V40.0331H34.5311V39.2707H38.8488V38.1685H35.7742V35.6243H41.9233V34.547H35.741V33.8011H42.8432V36.3204H36.6858V37.4309H43.067V38.1685H39.7521V39.2707H44.0698ZM35.6001 41.5829V40.8287H42.9012V43.8536H41.9731V41.5829H35.6001Z" fill="#B7B7B7"/>
</svg>
