<svg width="274" height="38" viewBox="0 0 274 38" fill="none" xmlns="http://www.w3.org/2000/svg">
<g clip-path="url(#clip0_59_139)">
<path d="M47.9718 18.8589C47.9718 27.7253 41.8664 36.5916 27.5706 36.5916H3.89003C1.74079 36.5916 0 34.8262 0 32.6466V5.3533C0 3.1737 1.74079 1.40833 3.89003 1.40833H27.5706C42.096 1.40833 47.9718 10.1346 47.9718 18.8609V18.8589ZM18.3648 23.082H23.9626C26.6914 23.082 28.3116 21.1589 28.3116 19.001C28.3116 16.8431 26.6934 14.9199 23.8712 14.9199H18.3668C18.3357 14.9199 18.3201 14.9514 18.3201 15.0146V22.9893C18.3201 23.0524 18.3357 23.084 18.3668 23.084L18.3648 23.082Z" fill="#FF7F00"/>
<path d="M48.8977 18.9536C48.8977 7.88207 57.3624 0 74.3404 0C91.3184 0 99.7831 7.88207 99.7831 18.9536C99.7831 28.8989 92.7052 38 74.3404 38C55.9756 38 48.8977 28.8989 48.8977 18.9536ZM74.3871 23.0821C78.5961 23.0821 80.1229 20.9715 80.1229 18.9536C80.1229 17.1232 78.6895 14.9199 74.3871 14.9199C70.0847 14.9199 68.5579 17.0305 68.5579 19.001C68.5579 20.9715 70.0847 23.0821 74.3871 23.0821Z" fill="#FF7F00"/>
<path d="M152.981 36.5916H137.89C135.978 36.5916 134.35 35.1833 134.048 33.268L131.796 18.9517C131.796 18.857 131.658 18.8116 131.658 18.9517L129.445 33.2581C129.147 35.1774 127.517 36.5916 125.601 36.5916H111.916C110.119 36.5916 108.555 35.343 108.135 33.5698C105.976 24.4746 103.794 15.3815 101.606 6.28631C101.008 3.80097 102.864 1.40637 105.385 1.40637H116.779C118.706 1.40637 120.344 2.83643 120.626 4.76947C121.4 10.0636 122.196 15.3361 122.96 20.6401H123.191L125.323 4.81681C125.586 2.86207 127.233 1.40637 129.178 1.40637H136.338C138.273 1.40637 139.913 2.84826 140.189 4.78919L142.437 20.6401H142.531C143.295 15.3361 144.089 10.0617 144.865 4.76947C145.147 2.83643 146.784 1.40637 148.712 1.40637H159.194C161.697 1.40637 163.548 3.76941 162.982 6.24292C160.903 15.3381 158.826 24.4312 156.776 33.5264C156.371 35.3194 154.8 36.5916 152.985 36.5916H152.981Z" fill="#FF7F00"/>
<path d="M165.196 9.57055V5.35336C165.196 3.17376 166.937 1.40839 169.086 1.40839H180.503C182.652 1.40839 184.393 3.17376 184.393 5.35336V32.6487C184.393 34.8283 182.652 36.5936 180.503 36.5936H169.086C166.937 36.5936 165.196 34.8283 165.196 32.6487V9.57055Z" fill="#FF7F00"/>
<path d="M223.71 15.6695H216.451C216.4 15.6695 216.358 15.7109 216.358 15.7642V32.6487C216.358 34.8283 214.617 36.5936 212.468 36.5936H201.05C198.901 36.5936 197.16 34.8283 197.16 32.6487V15.7642C197.16 15.7129 197.119 15.6695 197.067 15.6695H189.808C187.659 15.6695 185.918 13.9041 185.918 11.7245V5.35336C185.918 3.17376 187.659 1.40839 189.808 1.40839H223.708C225.857 1.40839 227.598 3.17376 227.598 5.35336V11.7245C227.598 13.9041 225.857 15.6695 223.708 15.6695H223.71Z" fill="#FF7F00"/>
<path d="M274 19.1884V32.6487C274 34.8283 272.259 36.5936 270.11 36.5936H258.693C256.543 36.5936 254.803 34.8283 254.803 32.6487V25.1473C254.803 25.096 254.762 25.0526 254.709 25.0526H248.372C248.347 25.0526 248.326 25.0743 248.326 25.1V32.6487C248.326 34.8283 246.585 36.5936 244.436 36.5936H233.019C230.869 36.5936 229.129 34.8283 229.129 32.6487V5.35336C229.129 3.17376 230.869 1.40839 233.019 1.40839H244.436C246.585 1.40839 248.326 3.17376 248.326 5.35336V15.1073C248.326 15.1586 248.367 15.202 248.419 15.202H254.711C254.762 15.202 254.805 15.1606 254.805 15.1073V5.35336C254.805 3.17376 256.545 1.40839 258.695 1.40839H270.112C272.261 1.40839 274.002 3.17376 274.002 5.35336V19.1884H274Z" fill="#FF7F00"/>
<path d="M73.4146 27.7923C78.5987 27.7923 82.8012 23.5304 82.8012 18.2731C82.8012 13.0157 78.5987 8.75385 73.4146 8.75385C68.2305 8.75385 64.0279 13.0157 64.0279 18.2731C64.0279 23.5304 68.2305 27.7923 73.4146 27.7923Z" fill="#FF7F00"/>
<path fill-rule="evenodd" clip-rule="evenodd" d="M85.303 10.6985C86.4396 11.7261 86.5396 13.4935 85.5264 14.6462L74.6012 27.0749C73.6212 28.1898 71.9501 28.3267 70.8063 27.3857L63.3686 21.2671C62.186 20.2942 62.005 18.5335 62.9643 17.3342C63.9235 16.135 65.6598 15.9514 66.8423 16.9242L72.2363 21.3616L81.4103 10.9251C82.4235 9.77244 84.1663 9.671 85.303 10.6985Z" fill="white"/>
</g>
<defs>
<clipPath id="clip0_59_139">
<rect width="274" height="38" fill="white"/>
</clipPath>
</defs>
</svg>
