<svg width="45" height="48" viewBox="0 0 45 48" fill="none" xmlns="http://www.w3.org/2000/svg">
<path d="M23.8125 8.12503V12.54L27.4809 14.7408C27.6657 14.8518 27.7988 15.0316 27.851 15.2408C27.9032 15.4499 27.8702 15.6712 27.7592 15.856C27.6482 16.0407 27.4684 16.1739 27.2593 16.2261C27.0501 16.2783 26.8288 16.2452 26.6441 16.1342L22.5816 13.6967C22.4613 13.6245 22.3618 13.5224 22.2928 13.4003C22.2237 13.2782 22.1875 13.1403 22.1875 13V8.12503C22.1875 7.90954 22.2731 7.70288 22.4255 7.55051C22.5778 7.39813 22.7845 7.31253 23 7.31253C23.2155 7.31253 23.4222 7.39813 23.5745 7.55051C23.7269 7.70288 23.8125 7.90954 23.8125 8.12503ZM23 3.25003C21.7183 3.24684 20.4486 3.49788 19.2646 3.98862C18.0805 4.47936 17.0056 5.20006 16.1019 6.10901C15.3635 6.85651 14.7074 7.57558 14.0625 8.32816V6.50003C14.0625 6.28454 13.9769 6.07788 13.8245 5.92551C13.6722 5.77313 13.4655 5.68753 13.25 5.68753C13.0345 5.68753 12.8278 5.77313 12.6755 5.92551C12.5231 6.07788 12.4375 6.28454 12.4375 6.50003V10.5625C12.4375 10.778 12.5231 10.9847 12.6755 11.1371C12.8278 11.2894 13.0345 11.375 13.25 11.375H17.3125C17.528 11.375 17.7347 11.2894 17.887 11.1371C18.0394 10.9847 18.125 10.778 18.125 10.5625C18.125 10.347 18.0394 10.1404 17.887 9.98801C17.7347 9.83563 17.528 9.75003 17.3125 9.75003H14.9766C15.7027 8.89487 16.4259 8.08948 17.2505 7.25464C18.3798 6.12542 19.8167 5.35401 21.3819 5.0368C22.947 4.71959 24.5709 4.87064 26.0507 5.47109C27.5305 6.07153 28.8005 7.09474 29.7021 8.41287C30.6037 9.73099 31.0968 11.2856 31.1199 12.8824C31.143 14.4792 30.6951 16.0474 29.832 17.391C28.9689 18.7347 27.729 19.7942 26.2672 20.4372C24.8054 21.0802 23.1866 21.2782 21.6129 21.0063C20.0392 20.7345 18.5806 20.005 17.4191 18.9089C17.3415 18.8356 17.2502 18.7782 17.1504 18.7402C17.0506 18.7021 16.9443 18.6841 16.8376 18.6871C16.7308 18.6901 16.6257 18.7141 16.5282 18.7578C16.4307 18.8014 16.3428 18.8638 16.2695 18.9414C16.1961 19.0191 16.1387 19.1104 16.1007 19.2102C16.0626 19.3099 16.0446 19.4163 16.0476 19.523C16.0506 19.6298 16.0746 19.7349 16.1183 19.8324C16.1619 19.9298 16.2243 20.0178 16.302 20.0911C17.4592 21.1832 18.8662 21.9754 20.4 22.3987C21.9339 22.822 23.548 22.8634 25.1015 22.5194C26.6551 22.1754 28.1008 21.4564 29.3126 20.4252C30.5244 19.394 31.4654 18.0818 32.0534 16.6033C32.6414 15.1247 32.8587 13.5248 32.6862 11.943C32.5137 10.3611 31.9566 8.84561 31.0637 7.52859C30.1708 6.21157 28.9691 5.1331 27.5635 4.38731C26.1579 3.64152 24.5912 3.25107 23 3.25003Z" fill="#B7B7B7"/>
<path d="M10.1768 37.6961V38.4669H8.48619V43.9448H7.5663V33.5359H8.48619V37.6961H10.1768ZM0.853591 41.3011V34.5635H1.76519V40.5304C3.29006 40.5262 4.84807 40.4061 6.56354 40.0497L6.67956 40.837C4.88122 41.1934 3.26519 41.3011 1.68232 41.3011H0.853591ZM14.1998 34.2983C15.8407 34.2983 17.0009 35.2928 17.0092 36.7431C17.0009 38.1934 15.8407 39.1878 14.1998 39.1878C12.5589 39.1878 11.3821 38.1934 11.3904 36.7431C11.3821 35.2928 12.5589 34.2983 14.1998 34.2983ZM10.8518 40.8867C12.7744 40.895 15.4263 40.8785 17.7302 40.5387L17.8048 41.2182C15.4181 41.6657 12.8573 41.674 10.9761 41.674L10.8518 40.8867ZM12.2937 36.7431C12.2855 37.7127 13.0893 38.384 14.1998 38.384C15.302 38.384 16.1059 37.7127 16.1059 36.7431C16.1059 35.7735 15.302 35.1022 14.1998 35.1022C13.0893 35.1022 12.2855 35.7735 12.2937 36.7431ZM18.4181 43.9696V33.5359H19.3379V43.9696H18.4181ZM27.7567 35.1768C27.7484 36.6602 28.8092 37.9696 30.3423 38.4834L29.8285 39.2044C28.6766 38.7735 27.7732 37.9282 27.3216 36.8301C26.8782 38.0773 25.9252 39.047 24.6655 39.5193L24.1683 38.7735C25.7677 38.2099 26.8368 36.826 26.8451 35.2099V34.1326H27.7567V35.1768ZM25.8672 41.9807C25.8589 40.7293 27.1848 40.0083 29.3561 40.0083C31.5191 40.0083 32.8451 40.7293 32.8451 41.9807C32.8451 43.2238 31.5191 43.9282 29.3561 43.9282C27.1848 43.9282 25.8589 43.2238 25.8672 41.9807ZM26.7788 41.9807C26.7705 42.7348 27.7567 43.1906 29.3561 43.1906C30.9473 43.1906 31.9335 42.7348 31.9335 41.9807C31.9335 41.2017 30.9473 40.7376 29.3561 40.7376C27.7567 40.7376 26.7705 41.2017 26.7788 41.9807ZM29.5716 36.5276V35.7652H31.892V33.5359H32.8119V39.7099H31.892V36.5276H29.5716ZM40.3239 34.6878V35.2348C40.3156 36.0552 40.3156 37.4309 40.0173 39.3619L39.0974 39.2873C39.3791 37.5428 39.404 36.2707 39.404 35.442H35.0283V34.6878H40.3239ZM34.4399 40.8867C35.1236 40.8826 35.886 40.8785 36.6858 40.8577V37.663H37.5974V40.8329C38.7493 40.7873 39.9302 40.7127 41.0117 40.5801L41.0615 41.2762C38.8736 41.616 36.4206 41.6657 34.5559 41.6575L34.4399 40.8867ZM41.6664 43.953V33.5359H42.5863V37.895H44.2769V38.6906H42.5863V43.953H41.6664Z" fill="#B7B7B7"/>
</svg>
