<svg width="73" height="21" viewBox="0 0 73 21" fill="none" xmlns="http://www.w3.org/2000/svg">
<path d="M28.7279 7.10981C28.7279 8.6761 29.8108 10.1651 31.6865 10.7935L31.0242 11.799C29.6367 11.3204 28.6264 10.3633 28.0946 9.16436C27.558 10.4841 26.4945 11.5235 25.0539 12.0311L24.3577 11.0256C26.2673 10.3729 27.4227 8.78729 27.4323 7.10497V6.77141H24.7348V5.72237H31.3722V6.77141H28.7279V7.10981ZM25.982 13.9503V12.9012H34.0794V17.1602H32.779V13.9503H25.982ZM32.779 12.2921V4.91022H34.0794V8.05732H35.8536V9.1547H34.0794V12.2921H32.779ZM40.9049 6.75207C40.8952 8.45856 42.0071 9.99102 43.8634 10.5953L43.1576 11.6105C41.8089 11.1222 40.8178 10.1796 40.2861 8.95166C39.7543 10.3536 38.6859 11.4461 37.2018 11.9827L36.5057 10.9385C38.4636 10.2714 39.5996 8.64226 39.6093 6.80525V5.59185H40.9049V6.75207ZM38.5216 14.8253C38.5119 13.3412 40.0879 12.4807 42.6597 12.4807C45.2267 12.4807 46.7978 13.3412 46.8026 14.8253C46.7978 16.3046 45.2267 17.1409 42.6597 17.1409C40.0879 17.1409 38.5119 16.3046 38.5216 14.8253ZM39.8075 14.8253C39.7978 15.6423 40.8662 16.116 42.6597 16.116C44.4484 16.116 45.5119 15.6423 45.5167 14.8253C45.5119 13.9793 44.4484 13.5007 42.6597 13.5007C40.8662 13.5007 39.7978 13.9793 39.8075 14.8253ZM42.8869 8.47307V7.4047H45.4684V4.91022H46.764V12.1423H45.4684V8.47307H42.8869ZM58.1965 4.91022V9.875H60.1592V10.953H58.1965V17.1602H56.9105V4.91022H58.1965ZM48.586 7.88812V6.82942H51.6074V5.06975H52.9029V6.82942H55.8422V7.88812H48.586ZM49.2144 11.6443C49.2096 9.97168 50.4955 8.79213 52.2648 8.79213C54.0148 8.79213 55.3007 9.97168 55.3056 11.6443C55.3007 13.3218 54.0148 14.4869 52.2648 14.4917C50.4955 14.4869 49.2096 13.3218 49.2144 11.6443ZM50.4568 11.6443C50.4471 12.703 51.2158 13.4137 52.2648 13.4088C53.2994 13.4137 54.0583 12.703 54.068 11.6443C54.0583 10.5905 53.2994 9.86533 52.2648 9.86533C51.2158 9.86533 50.4471 10.5905 50.4568 11.6443ZM70.9342 4.91022V17.1602H69.6289V4.91022H70.9342ZM60.8693 13.8778C64.1276 12.3308 65.7132 10.1215 65.9694 7.2645H61.4639V6.22997H67.294C67.2843 9.81215 65.7615 12.9206 61.5557 14.9268L60.8693 13.8778Z" fill="#949494"/>
<path d="M17.7594 5.73209L14.268 2.24146C14.1519 2.12536 14.0141 2.03326 13.8624 1.97042C13.7107 1.90759 13.5482 1.87524 13.384 1.87524C13.2198 1.87524 13.0572 1.90759 12.9056 1.97042C12.7539 2.03326 12.6161 2.12536 12.5 2.24146L2.86641 11.8751C2.74983 11.9907 2.65741 12.1284 2.59451 12.2801C2.5316 12.4318 2.49948 12.5944 2.50001 12.7586V16.2501C2.50001 16.5816 2.6317 16.8995 2.86612 17.1339C3.10054 17.3684 3.41849 17.5001 3.75001 17.5001H16.875C17.0408 17.5001 17.1997 17.4342 17.3169 17.317C17.4342 17.1998 17.5 17.0408 17.5 16.8751C17.5 16.7093 17.4342 16.5503 17.3169 16.4331C17.1997 16.3159 17.0408 16.2501 16.875 16.2501H9.00938L17.7594 7.50006C17.8755 7.38398 17.9676 7.24617 18.0304 7.09449C18.0933 6.94282 18.1256 6.78025 18.1256 6.61607C18.1256 6.45189 18.0933 6.28933 18.0304 6.13765C17.9676 5.98597 17.8755 5.84816 17.7594 5.73209ZM10.625 5.88365L11.9289 7.18756L5.31251 13.804L4.0086 12.5001L10.625 5.88365ZM3.75001 16.2501V14.0086L5.99141 16.2501H3.75001ZM7.50001 15.9915L6.19688 14.6876L12.8125 8.07115L14.1164 9.37506L7.50001 15.9915ZM15 8.49146L11.5094 5.00006L13.3844 3.12506L16.875 6.61646L15 8.49146Z" fill="#949494"/>
</svg>
