<svg width="35" height="48" viewBox="0 0 35 48" fill="none" xmlns="http://www.w3.org/2000/svg">
<path d="M28.1429 3.71436H5.85714C5.3646 3.71436 4.89223 3.91002 4.54394 4.2583C4.19566 4.60658 4 5.07895 4 5.5715V20.4286C4 20.9212 4.19566 21.3936 4.54394 21.7418C4.89223 22.0901 5.3646 22.2858 5.85714 22.2858H28.1429C28.6354 22.2858 29.1078 22.0901 29.4561 21.7418C29.8043 21.3936 30 20.9212 30 20.4286V5.5715C30 5.07895 29.8043 4.60658 29.4561 4.2583C29.1078 3.91002 28.6354 3.71436 28.1429 3.71436ZM11.4286 16.7144C11.3066 16.7145 11.1858 16.6905 11.0731 16.6439C10.9603 16.5973 10.8579 16.529 10.7716 16.4427L7.98589 13.657C7.81166 13.4828 7.71377 13.2465 7.71377 13.0001C7.71377 12.7537 7.81166 12.5173 7.98589 12.3431C8.16013 12.1689 8.39645 12.071 8.64286 12.071C8.88927 12.071 9.12558 12.1689 9.29982 12.3431L11.4286 14.473L17.2716 8.62882C17.3579 8.54255 17.4603 8.47411 17.573 8.42742C17.6857 8.38073 17.8066 8.3567 17.9286 8.3567C18.0506 8.3567 18.1714 8.38073 18.2841 8.42742C18.3968 8.47411 18.4993 8.54255 18.5855 8.62882C18.6718 8.71509 18.7402 8.81752 18.7869 8.93024C18.8336 9.04296 18.8577 9.16377 18.8577 9.28578C18.8577 9.40779 18.8336 9.52861 18.7869 9.64133C18.7402 9.75405 18.6718 9.85647 18.5855 9.94275L12.0855 16.4427C11.9992 16.529 11.8968 16.5973 11.7841 16.6439C11.6714 16.6905 11.5505 16.7145 11.4286 16.7144ZM26.9427 9.94275L20.4427 16.4427C20.3564 16.5291 20.254 16.5976 20.1413 16.6443C20.0286 16.691 19.9077 16.7151 19.7857 16.7151C19.6637 16.7151 19.5429 16.691 19.4301 16.6443C19.3174 16.5976 19.215 16.5291 19.1287 16.4427L17.2716 14.5856C17.0974 14.4114 16.9995 14.1751 16.9995 13.9286C16.9995 13.6822 17.0974 13.4459 17.2716 13.2717C17.4458 13.0974 17.6822 12.9996 17.9286 12.9996C18.175 12.9996 18.4113 13.0974 18.5855 13.2717L19.7857 14.473L25.6287 8.62882C25.715 8.54255 25.8174 8.47411 25.9302 8.42742C26.0429 8.38073 26.1637 8.3567 26.2857 8.3567C26.4077 8.3567 26.5285 8.38073 26.6413 8.42742C26.754 8.47411 26.8564 8.54255 26.9427 8.62882C27.029 8.71509 27.0974 8.81752 27.1441 8.93024C27.1908 9.04296 27.2148 9.16377 27.2148 9.28578C27.2148 9.40779 27.1908 9.52861 27.1441 9.64133C27.0974 9.75405 27.029 9.85647 26.9427 9.94275Z" fill="#B7B7B7"/>
<path d="M6.02486 34.174V34.9365H1.9558V36.2376H5.73481V36.9751H1.9558V38.3591C4.17265 38.3674 5.4116 38.3218 6.87845 38.0691L6.9779 38.8149C5.45304 39.0801 4.1768 39.1133 1.87293 39.105H1.02762V34.174H6.02486ZM2.24586 43.8122V40.2735H9.02486V43.8122H2.24586ZM3.15746 43.058H8.12155V41.0028H3.15746V43.058ZM8.10497 39.7514V33.5442H9.02486V39.7514H8.10497ZM23.3276 39.8425V40.605H19.0016V43.953H18.0983V40.605H13.7889V39.8425H23.3276ZM15.0734 38.7652V34.0249H22.1342V34.779H15.985V35.989H21.8856V36.7265H15.985V38.0193H22.2502V38.7652H15.0734ZM32.4887 37.4309V38.1768H25.486V34.1492H32.3478V34.9116H26.4224V37.4309H32.4887ZM24.16 40.3066V39.5525H33.6987V40.3066H29.3561V43.9199H28.4528V40.3066H24.16Z" fill="#B7B7B7"/>
</svg>
