<svg width="22" height="22" viewBox="0 0 22 22" fill="none" xmlns="http://www.w3.org/2000/svg">
<path d="M14.9239 8.45109C14.9878 8.51494 15.0385 8.59077 15.0731 8.67423C15.1077 8.75769 15.1255 8.84715 15.1255 8.9375C15.1255 9.02785 15.1077 9.11731 15.0731 9.20077C15.0385 9.28423 14.9878 9.36006 14.9239 9.42391L10.1114 14.2364C10.0476 14.3003 9.97173 14.351 9.88827 14.3856C9.80481 14.4202 9.71535 14.438 9.625 14.438C9.53465 14.438 9.44519 14.4202 9.36173 14.3856C9.27827 14.351 9.20244 14.3003 9.13859 14.2364L7.07609 12.1739C6.94709 12.0449 6.87462 11.8699 6.87462 11.6875C6.87462 11.5051 6.94709 11.3301 7.07609 11.2011C7.2051 11.0721 7.38006 10.9996 7.5625 10.9996C7.74494 10.9996 7.9199 11.0721 8.04891 11.2011L9.625 12.778L13.9511 8.45109C14.0149 8.38717 14.0908 8.33646 14.1742 8.30187C14.2577 8.26727 14.3472 8.24946 14.4375 8.24946C14.5278 8.24946 14.6173 8.26727 14.7008 8.30187C14.7842 8.33646 14.8601 8.38717 14.9239 8.45109ZM19.25 4.125V17.875C19.25 18.2397 19.1051 18.5894 18.8473 18.8473C18.5894 19.1051 18.2397 19.25 17.875 19.25H4.125C3.76033 19.25 3.41059 19.1051 3.15273 18.8473C2.89487 18.5894 2.75 18.2397 2.75 17.875V4.125C2.75 3.76033 2.89487 3.41059 3.15273 3.15273C3.41059 2.89487 3.76033 2.75 4.125 2.75H17.875C18.2397 2.75 18.5894 2.89487 18.8473 3.15273C19.1051 3.41059 19.25 3.76033 19.25 4.125ZM17.875 17.875V4.125H4.125V17.875H17.875Z" fill="#FF7F00"/>
</svg>
