<svg width="45" height="48" viewBox="0 0 45 48" fill="none" xmlns="http://www.w3.org/2000/svg">
<path d="M30.125 3.25H13.875C13.444 3.25 13.0307 3.4212 12.726 3.72595C12.4212 4.0307 12.25 4.44402 12.25 4.875V21.125C12.25 21.556 12.4212 21.9693 12.726 22.274C13.0307 22.5788 13.444 22.75 13.875 22.75H30.125C30.556 22.75 30.9693 22.5788 31.274 22.274C31.5788 21.9693 31.75 21.556 31.75 21.125V4.875C31.75 4.44402 31.5788 4.0307 31.274 3.72595C30.9693 3.4212 30.556 3.25 30.125 3.25ZM26.6373 11.1373L20.9498 16.8248C20.8744 16.9004 20.7848 16.9603 20.6861 17.0012C20.5875 17.0421 20.4818 17.0631 20.375 17.0631C20.2682 17.0631 20.1625 17.0421 20.0639 17.0012C19.9652 16.9603 19.8756 16.9004 19.8002 16.8248L17.3627 14.3873C17.2102 14.2349 17.1245 14.0281 17.1245 13.8125C17.1245 13.5969 17.2102 13.3901 17.3627 13.2377C17.5151 13.0852 17.7219 12.9995 17.9375 12.9995C18.1531 12.9995 18.3599 13.0852 18.5123 13.2377L20.375 15.1013L25.4877 9.98766C25.5631 9.91217 25.6528 9.85228 25.7514 9.81143C25.85 9.77058 25.9557 9.74955 26.0625 9.74955C26.1693 9.74955 26.275 9.77058 26.3736 9.81143C26.4722 9.85228 26.5619 9.91217 26.6373 9.98766C26.7128 10.0631 26.7727 10.1528 26.8136 10.2514C26.8544 10.35 26.8755 10.4557 26.8755 10.5625C26.8755 10.6693 26.8544 10.775 26.8136 10.8736C26.7727 10.9722 26.7128 11.0619 26.6373 11.1373Z" fill="#FF7F00"/>
<path d="M9.38122 33.4945V43.9945H8.30387V38.5497H7.01105V43.489H5.97099V33.7762H7.01105V37.6423H8.30387V33.4945H9.38122ZM0.348066 40.9903C2.68923 39.6644 3.66713 37.8785 3.83702 35.7403H0.79558V34.8329H4.92265C4.91436 37.5925 3.99862 40.0746 0.994475 41.7735L0.348066 40.9903ZM19.4705 33.5028V41.1354H18.3559V33.5028H19.4705ZM10.9719 36.8135C10.9719 35.2928 12.186 34.2155 13.7689 34.2155C15.3518 34.2155 16.5576 35.2928 16.5576 36.8135C16.5576 38.355 15.3518 39.4282 13.7689 39.424C12.186 39.4282 10.9719 38.355 10.9719 36.8135ZM12.0617 36.8135C12.0534 37.7997 12.791 38.4544 13.7689 38.4544C14.7302 38.4544 15.4678 37.7997 15.4678 36.8135C15.4678 35.8439 14.7302 35.1851 13.7689 35.1851C12.791 35.1851 12.0534 35.8439 12.0617 36.8135ZM12.6004 43.779V40.3605H13.7192V42.8674H19.7772V43.779H12.6004ZM33.6539 39.8052V40.721H29.386V43.9945H28.292V40.721H24.0448V39.8052H33.6539ZM25.3086 38.8273V33.9627H32.4771V34.8577H26.4067V35.9309H32.2368V36.8052H26.4067V37.9365H32.5931V38.8273H25.3086ZM42.8399 37.3564V38.2472H35.7129V34.0912H42.7115V34.9986H36.8482V37.3564H42.8399ZM34.4159 40.4227V39.5193H44.025V40.4227H39.7405V43.9696H38.6466V40.4227H34.4159Z" fill="#FF7F00"/>
</svg>
