<svg width="60" height="23" viewBox="0 0 60 23" fill="none" xmlns="http://www.w3.org/2000/svg">
<path d="M28.6298 11.2715C28.6298 16.5707 24.9861 21.8699 16.4542 21.8699H2.32159C1.03891 21.8699 0 20.8148 0 19.5121V3.1995C0 1.8968 1.03891 0.841675 2.32159 0.841675H16.4542C25.123 0.841675 28.6298 6.05718 28.6298 11.2727V11.2715ZM10.9602 13.7956H14.301C15.9296 13.7956 16.8965 12.6461 16.8965 11.3564C16.8965 10.0667 15.9307 8.91722 14.2464 8.91722H10.9614C10.9428 8.91722 10.9335 8.93608 10.9335 8.97381V13.7401C10.9335 13.7779 10.9428 13.7967 10.9614 13.7967L10.9602 13.7956Z" fill="#FF7F00"/>
<path d="M29.1824 11.3282C29.1824 4.71093 34.2341 0 44.3667 0C54.4993 0 59.5511 4.71093 59.5511 11.3282C59.5511 17.2722 55.3269 22.7117 44.3667 22.7117C33.4065 22.7117 29.1824 17.2722 29.1824 11.3282ZM44.3946 13.7956C46.9065 13.7956 47.8178 12.5342 47.8178 11.3282C47.8178 10.2341 46.9622 8.91729 44.3946 8.91729C41.8269 8.91729 40.9157 10.1787 40.9157 11.3565C40.9157 12.5342 41.8269 13.7956 44.3946 13.7956Z" fill="#FF7F00"/>
<path d="M43.8141 16.6107C46.908 16.6107 49.4161 14.0634 49.4161 10.9212C49.4161 7.77905 46.908 5.23181 43.8141 5.23181C40.7202 5.23181 38.2121 7.77905 38.2121 10.9212C38.2121 14.0634 40.7202 16.6107 43.8141 16.6107Z" fill="#FF7F00"/>
<path fill-rule="evenodd" clip-rule="evenodd" d="M50.9092 6.39429C51.5875 7.00843 51.6472 8.06478 51.0425 8.75371L44.5223 16.182C43.9374 16.8484 42.9401 16.9302 42.2575 16.3678L37.8186 12.7108C37.1129 12.1294 37.0049 11.077 37.5773 10.3603C38.1498 9.64352 39.186 9.53382 39.8918 10.1152L43.1109 12.7674L48.586 6.5297C49.1907 5.84077 50.2308 5.78015 50.9092 6.39429Z" fill="white"/>
</svg>
