<svg width="28" height="15" viewBox="0 0 28 15" fill="none" xmlns="http://www.w3.org/2000/svg">
<path d="M4.76243 0.955801C6.81215 0.955801 8.25414 2.07735 8.26519 3.74586C8.25414 5.17127 7.16575 6.21547 5.54144 6.46409V7.71823C6.77901 7.64641 8.02763 7.53591 9.18785 7.36464L9.30387 8.45856C6.36464 8.98895 3.06077 9.03867 0.662983 9.03867L0.497238 7.83425C1.54144 7.83425 2.76796 7.82873 4.05525 7.78453V6.47514C2.38674 6.24309 1.27072 5.19337 1.28177 3.74586C1.27072 2.07735 2.71271 0.955801 4.76243 0.955801ZM2.47514 14.0276V10.105H3.96685V12.8066H12.0331V14.0276H2.47514ZM2.66298 3.74586C2.65193 4.74033 3.53039 5.38674 4.76243 5.39779C6.01105 5.38674 6.85635 4.74033 6.8674 3.74586C6.85635 2.73481 6.01105 2.09392 4.76243 2.0884C3.53039 2.09392 2.65193 2.73481 2.66298 3.74586ZM10.0497 11.0442V0.337016H11.5304V4.96685H13.5249V6.21547H11.5304V11.0442H10.0497ZM27.1596 11.4144V12.6464H14.3475V11.4144H17.8447V8.9337H15.9055V4.48066H24.1265V2.53039H15.8778V1.32044H25.5906V5.69061H17.3806V7.71823H25.9165V8.9337H23.795V11.4144H27.1596ZM19.2867 11.4144H22.3364V8.9337H19.2867V11.4144Z" fill="#FF7F00"/>
</svg>
